<?xml version="1.0" standalone="no"?>
<!DOCTYPE svg PUBLIC "-//W3C//DTD SVG 20010904//EN"
 "http://www.w3.org/TR/2001/REC-SVG-20010904/DTD/svg10.dtd">
<svg version="1.0" xmlns="http://www.w3.org/2000/svg"
 width="500.000000pt" height="500.000000pt" viewBox="0 0 500.000000 500.000000"
 preserveAspectRatio="xMidYMid meet">
<metadata>
Created by potrace 1.14, written by Peter Selinger 2001-2017
</metadata>
<g transform="translate(0.000000,500.000000) scale(0.100000,-0.100000)"
fill="#000000" stroke="none">
<path d="M2360 4310 c-73 -110 -138 -200 -144 -200 -6 0 -99 29 -206 65 -107
36 -197 64 -200 63 -4 -2 26 -176 66 -388 40 -212 79 -420 87 -463 13 -71 13
-76 -2 -65 -9 7 -107 91 -219 187 -116 99 -207 170 -212 165 -4 -5 -27 -101
-49 -213 -22 -112 -42 -205 -43 -206 -2 -1 -113 -9 -246 -18 -134 -8 -246 -17
-248 -20 -2 -2 43 -101 101 -219 58 -119 105 -220 105 -226 0 -5 -72 -74 -161
-152 -88 -79 -156 -146 -152 -150 4 -4 296 -159 648 -345 352 -186 642 -339
644 -341 2 -2 4 -164 4 -359 l0 -356 23 -24 c24 -26 34 -27 182 -26 l53 0 -3
-142 -3 -142 -97 0 c-83 0 -101 -3 -125 -21 -26 -20 -28 -26 -29 -98 -1 -62 2
-82 18 -101 l19 -25 344 0 344 0 20 26 c32 40 30 152 -2 190 -23 26 -27 27
-129 28 l-106 0 -1 41 c-3 75 -3 150 -1 160 1 6 1 26 0 46 l-1 37 95 1 c127 2
123 1 143 24 16 17 18 55 23 389 l5 371 627 331 c345 182 629 334 633 337 3 4
-66 70 -155 149 -88 78 -160 147 -160 152 0 6 47 107 105 226 58 118 103 217
101 219 -2 3 -114 12 -248 20 -133 9 -244 17 -246 18 -1 1 -21 94 -43 206 -22
112 -45 208 -49 213 -5 5 -96 -66 -212 -165 -112 -96 -210 -180 -219 -187 -15
-11 -15 -6 -2 65 8 43 47 251 87 463 40 212 70 386 66 388 -3 1 -93 -27 -200
-63 -107 -36 -200 -65 -206 -65 -6 0 -71 90 -144 200 -73 110 -136 200 -140
200 -4 0 -67 -90 -140 -200z"/>
</g>
</svg>
